<mxfile host="app.diagrams.net" modified="2024-07-06T10:43:25.907Z" agent="Mozilla/5.0 (Windows NT 10.0; Win64; x64) AppleWebKit/537.36 (KHTML, like Gecko) Chrome/125.0.0.0 Safari/537.36 Edg/125.0.0.0" version="24.6.4" etag="lgQKUdbR3RgvFCP9-3-i" type="github">
  <diagram name="‫עמוד-1‬" id="0Gv-Vi14nUZYFHUKILh6">
    <mxGraphModel>
      <root>
        <mxCell id="0" />
        <mxCell id="1" parent="0" />
      </root>
    </mxGraphModel>
  </diagram>
</mxfile>
